<svg xmlns="http://www.w3.org/2000/svg" width="14" height="16" fill="none"><path fill="#000" d="M12.333 6c-.246 0-.476.067-.675.184A1.335 1.335 0 0 0 10.333 5c-.325 0-.624.118-.857.314a1.333 1.333 0 0 0-1.81-.468V1.333C7.667.598 7.07 0 6.334 0 5.598 0 5 .598 5 1.333v8.922c0 .167-.11.254-.158.283a.33.33 0 0 1-.324.015l-2.141-1.07a1.414 1.414 0 0 0-2.044 1.263V11c0 .092.039.18.106.244l3.848 3.59A4.32 4.32 0 0 0 7.242 16h2.09a4.338 4.338 0 0 0 4.334-4.333V7.333c0-.735-.598-1.333-1.334-1.333ZM13 11.667a3.67 3.67 0 0 1-3.667 3.666h-2.09c-.931 0-1.82-.35-2.501-.986L1 10.855v-.11a.746.746 0 0 1 1.079-.666l2.14 1.07c.313.157.677.14.973-.043a.994.994 0 0 0 .475-.851V1.333a.668.668 0 0 1 1.333 0v5a.333.333 0 1 0 .667 0V6A.668.668 0 0 1 9 6v.335a.334.334 0 0 0 .667-.002v-.005A.668.668 0 0 1 11 6.333v1a.333.333 0 1 0 .667 0 .667.667 0 0 1 1.333 0v4.334Z"/></svg>