<svg xmlns="http://www.w3.org/2000/svg" width="63" height="47" fill="#AFB1B8"><path fill="#AFB1B8" d="M4.757 38.735c.244.276.373.622.367.977a1.43 1.43 0 0 1-.131.676 1.557 1.557 0 0 1-.438.558 2.627 2.627 0 0 1-1.651.45H0v-6.19h2.844a2.592 2.592 0 0 1 1.576.41c.184.142.33.32.425.52.096.201.139.42.127.64.016.34-.1.676-.33.946-.221.246-.526.416-.866.484.385.064.733.252.98.53Zm-3.406-.934h1.216c.276.018.55-.055.773-.206a.738.738 0 0 0 .207-.275.679.679 0 0 0 .054-.33.701.701 0 0 0-.055-.329.76.76 0 0 0-.203-.276 1.255 1.255 0 0 0-.796-.209H1.35v1.625Zm2.108 2.374a.774.774 0 0 0 .224-.284.71.71 0 0 0 .063-.345.723.723 0 0 0-.066-.35.788.788 0 0 0-.228-.285 1.339 1.339 0 0 0-.826-.224H1.351v1.703h1.292c.29.015.578-.06.816-.215ZM10.57 41.397l-1.581-2.42h-.595v2.42H7.033v-6.192H9.61a2.699 2.699 0 0 1 1.793.527c.36.336.578.779.613 1.248.035.47-.114.936-.421 1.314a2.147 2.147 0 0 1-1.229.629l1.685 2.474h-1.48Zm-2.176-3.264h1.113c.773 0 1.16-.312 1.16-.937a.851.851 0 0 0-.063-.375.916.916 0 0 0-.221-.321 1.282 1.282 0 0 0-.876-.251H8.381l.013 1.884ZM18.01 40.15h-2.712l-.479 1.247h-1.427l2.49-6.122h1.543l2.481 6.122H18.48l-.469-1.246Zm-.363-.937-.991-2.613-.991 2.613h1.982ZM27.322 41.397h-1.35l-3.03-4.21v4.21h-1.348v-6.192h1.348l3.03 4.235v-4.235h1.35v6.192ZM35.033 39.915c-.28.467-.705.848-1.223 1.092a4.287 4.287 0 0 1-1.9.39h-2.404v-6.192h2.405a4.376 4.376 0 0 1 1.9.382c.517.238.943.615 1.222 1.08.278.503.423 1.06.423 1.624 0 .564-.145 1.12-.423 1.624Zm-1.546-.148c.385-.412.597-.936.597-1.478a2.16 2.16 0 0 0-.597-1.477 2.489 2.489 0 0 0-1.692-.527h-.938v4.008h.938a2.488 2.488 0 0 0 1.692-.526ZM18.856.767s17.438 6.028 17.069 14.75v14.755s-17.426-6.031-17.063-14.754L18.856.767ZM51.46 26.818c3.294-2.075 7.103-3.36 11.08-3.739v-4.618c-4.582 1.617-8.47 4.549-11.08 8.357Z"/><path fill="#AFB1B8" d="M49.482 28.21c2.695-4.97 7.368-8.806 13.058-10.717V4.185s-24.835 8.587-24.31 21.009V46.2s1.107-.384 2.848-1.104c0-.671 0-1.349.08-2.03.513-5.767 3.507-11.11 8.324-14.857Z"/><path fill="#AFB1B8" d="M47.12 36.013a20.05 20.05 0 0 1 .869-4.301c-3 3.235-4.816 7.25-5.193 11.479-.037.399-.057.798-.066 1.21a74.697 74.697 0 0 0 4.776-2.305c-.44-2.001-.57-4.049-.386-6.083ZM48.108 36.089a19.051 19.051 0 0 0 .307 5.508c6.785-3.718 14.41-9.462 14.115-16.403v-.605c-4.848.497-9.383 2.437-12.91 5.523a19.259 19.259 0 0 0-1.512 5.977Z"/></svg>